<svg width="32" height="32" viewBox="0 0 32 32" fill="none" xmlns="http://www.w3.org/2000/svg">
  <defs>
    <linearGradient id="intfyGold" x1="6" y1="4" x2="26" y2="28" gradientUnits="userSpaceOnUse">
      <stop stop-color="#FFE8AA"/>
      <stop offset="0.4" stop-color="#F5B43C"/>
      <stop offset="1" stop-color="#8F5B10"/>
    </linearGradient>
  </defs>

  <!-- outer hex shield -->
  <path
    d="M16 3L25 8.2V18.3L16 25L7 18.3V8.2L16 3Z"
    stroke="url(#intfyGold)"
    stroke-width="2"
    fill="none"
    stroke-linejoin="round"
  />

  <!-- bottom spike / point -->
  <path
    d="M16 23L14.8 26.5L16 29L17.2 26.5L16 23Z"
    fill="url(#intfyGold)"
  />

  <!-- coin shadow -->
  <ellipse
    cx="17.5"
    cy="15.8"
    rx="5.2"
    ry="2.3"
    fill="#1A130A"
    opacity="0.45"
  />

  <!-- coin -->
  <circle
    cx="15.2"
    cy="13.5"
    r="5.3"
    fill="url(#intfyGold)"
  />

  <!-- inner 'Y' network path -->
  <path
    d="M14 11.2L15.4 12.3L16.8 11.1"
    stroke="#1E1B14"
    stroke-width="1.15"
    stroke-linecap="round"
    stroke-linejoin="round"
  />
  <path
    d="M14.8 12.8L14.8 15.4"
    stroke="#1E1B14"
    stroke-width="1.15"
    stroke-linecap="round"
    stroke-linejoin="round"
  />
  <path
    d="M14.8 15.4L16.4 16.4"
    stroke="#1E1B14"
    stroke-width="1.15"
    stroke-linecap="round"
    stroke-linejoin="round"
  />

  <!-- connection dots -->
  <circle cx="14" cy="11.2" r="0.85" fill="#1E1B14"/>
  <circle cx="16.8" cy="11.1" r="0.85" fill="#1E1B14"/>
  <circle cx="14.8" cy="12.8" r="0.85" fill="#1E1B14"/>
  <circle cx="14.8" cy="15.4" r="0.85" fill="#1E1B14"/>
  <circle cx="16.4" cy="16.4" r="0.85" fill="#1E1B14"/>
</svg>
