<svg width="32" height="32" viewBox="0 0 32 32" fill="none" xmlns="http://www.w3.org/2000/svg">
  <defs>
    <linearGradient id="g" x1="6" y1="4" x2="26" y2="28" gradientUnits="userSpaceOnUse">
      <stop stop-color="#FFD36E"/>
      <stop offset="0.5" stop-color="#F4A623"/>
      <stop offset="1" stop-color="#8C4F0A"/>
    </linearGradient>
  </defs>

  <!-- shield -->
  <path d="M16 3L26 9V19L16 27L6 19V9L16 3Z"
    stroke="url(#g)" 
    stroke-width="2.2" 
    fill="none" 
    stroke-linejoin="round"/>

  <!-- bottom point -->
  <path d="M16 22L14.8 25.5L16 29L17.2 25.5L16 22Z"
    fill="url(#g)"/>

  <!-- coin -->
  <circle cx="16" cy="15" r="6" fill="url(#g)"/>

  <!-- Y path -->
  <path d="M15 12.5L16.3 13.5L17.8 12.2" 
    stroke="#1D1B14" stroke-width="1.2" stroke-linecap="round" stroke-linejoin="round"/>

  <path d="M15.8 14L15.8 17" 
    stroke="#1D1B14" stroke-width="1.2" stroke-linecap="round" stroke-linejoin="round"/>

  <path d="M15.8 17L17.5 18" 
    stroke="#1D1B14" stroke-width="1.2" stroke-linecap="round" stroke-linejoin="round"/>

  <!-- nodes -->
  <circle cx="15" cy="12.5" r="1.1" fill="#1D1B14"/>
  <circle cx="17.8" cy="12.2" r="1.1" fill="#1D1B14"/>
  <circle cx="15.8" cy="14" r="1.1" fill="#1D1B14"/>
  <circle cx="15.8" cy="17" r="1.1" fill="#1D1B14"/>
  <circle cx="17.5" cy="18" r="1.1" fill="#1D1B14"/>
</svg>
